<?xml version="1.0" standalone="no"?>
<!DOCTYPE svg PUBLIC "-//W3C//DTD SVG 20010904//EN"
 "http://www.w3.org/TR/2001/REC-SVG-20010904/DTD/svg10.dtd">
<svg version="1.0" xmlns="http://www.w3.org/2000/svg"
 width="1950.000000pt" height="1950.000000pt" viewBox="0 0 1950.000000 1950.000000"
 preserveAspectRatio="xMidYMid meet">
<metadata>
Created by potrace 1.11, written by Peter Selinger 2001-2013
</metadata>
<g transform="translate(0.000000,1950.000000) scale(0.100000,-0.100000)"
fill="#000000" stroke="none">
<path d="M17830 11109 c-83 -34 -123 -135 -86 -222 65 -153 308 -101 308 67 0
116 -116 197 -222 155z"/>
<path d="M10569 11090 c0 -8 -1 -246 -1 -527 0 -282 -1 -513 -3 -513 -1 0 -14
18 -29 40 -35 53 -111 129 -169 169 -188 129 -482 145 -715 40 -120 -54 -252
-166 -329 -279 -69 -102 -131 -256 -154 -385 -14 -78 -18 -360 -6 -443 50
-352 238 -635 495 -749 169 -75 404 -82 587 -18 99 35 227 138 290 233 15 23
29 42 31 42 1 0 2 -65 1 -144 -2 -122 0 -146 13 -148 13 -3 404 -2 436 1 8 1
11 379 11 1349 l0 1347 -228 0 c-197 0 -229 -2 -230 -15z m-327 -1140 c153
-57 265 -190 305 -360 23 -100 23 -302 -1 -410 -50 -236 -223 -396 -436 -405
-209 -8 -373 118 -451 344 -43 124 -47 362 -8 496 33 117 134 252 229 308 101
58 250 70 362 27z"/>
<path d="M0 9693 l0 -1288 235 0 c129 1 237 4 241 8 4 3 7 215 8 469 l1 463
130 0 130 0 72 -115 c39 -63 106 -171 149 -240 79 -129 126 -203 176 -278 15
-24 28 -45 28 -47 0 -3 147 -242 157 -254 6 -8 573 -6 573 1 0 4 -46 78 -103
165 -57 87 -125 192 -152 233 -27 41 -94 145 -150 230 -215 330 -248 381 -244
383 2 1 27 13 54 26 60 28 158 96 204 142 68 69 155 201 174 264 50 168 61
271 44 435 -33 320 -280 581 -620 654 -40 9 -85 19 -102 22 -16 4 -249 9 -517
11 l-488 5 0 -1289z m865 883 c255 -20 392 -179 378 -442 -9 -190 -108 -327
-268 -369 -16 -5 -37 -10 -45 -12 -8 -3 -112 -6 -231 -8 l-216 -3 0 419 -1
418 47 3 c63 4 251 1 336 -6z"/>
<path d="M13299 10965 c-3 -26 -7 -79 -14 -180 -4 -60 -8 -126 -10 -145 -2
-19 -6 -84 -10 -145 -3 -60 -8 -126 -10 -145 -2 -19 -7 -82 -10 -140 -4 -58
-8 -121 -10 -140 -2 -19 -6 -80 -9 -135 -4 -55 -9 -125 -11 -155 -3 -30 -7
-91 -10 -135 -17 -246 -25 -368 -40 -570 -3 -44 -8 -114 -10 -155 -2 -41 -7
-104 -10 -140 -3 -36 -7 -92 -10 -125 -2 -33 -6 -103 -10 -156 l-6 -97 118 2
118 1 1 25 c1 14 5 54 8 90 3 36 8 101 11 145 3 44 7 114 10 155 3 41 8 102
10 135 3 33 8 95 10 139 4 73 10 160 20 296 3 30 7 93 10 140 3 47 7 110 10
140 2 30 7 102 10 160 4 58 8 121 10 140 2 19 6 82 10 140 3 58 8 127 10 153
2 26 7 100 11 165 8 122 10 157 13 182 2 18 13 -10 131 -345 50 -143 104 -296
120 -340 15 -44 45 -127 65 -185 73 -209 167 -476 189 -540 13 -36 37 -103 54
-150 17 -47 60 -170 97 -275 104 -298 107 -305 119 -306 28 -2 268 0 270 3 2
2 58 152 125 333 67 182 144 389 171 460 26 72 71 193 100 270 28 77 54 147
57 155 3 8 7 20 9 25 2 6 31 84 64 175 34 91 79 215 101 275 22 61 46 126 53
145 7 19 37 100 65 180 54 153 67 177 68 133 1 -34 12 -175 18 -223 2 -19 7
-71 10 -115 7 -97 14 -173 20 -240 3 -27 7 -84 10 -125 3 -41 8 -99 10 -127
15 -166 14 -152 30 -363 3 -41 8 -88 10 -105 2 -16 7 -66 10 -110 3 -44 8 -98
10 -120 2 -22 7 -74 10 -115 11 -139 13 -165 19 -235 13 -144 16 -172 22 -250
3 -44 8 -83 10 -86 2 -3 55 -6 119 -6 l116 -1 -6 67 c-3 36 -8 90 -10 120 -3
55 -15 194 -21 246 -1 17 -5 69 -9 116 -3 47 -7 94 -9 105 -2 10 -7 62 -11
114 -3 52 -8 111 -10 130 -2 19 -6 73 -10 120 -3 47 -8 103 -10 125 -3 22 -7
74 -10 115 -3 41 -8 86 -10 100 -2 14 -6 68 -10 120 -3 52 -8 111 -10 130 -2
19 -6 71 -10 115 -3 44 -8 96 -10 115 -2 19 -7 78 -10 130 -4 52 -9 102 -10
110 -2 8 -6 60 -9 115 -4 55 -9 111 -11 125 -2 14 -7 66 -10 115 -3 50 -8 101
-11 115 l-5 26 -159 -1 c-87 0 -161 -3 -163 -5 -4 -5 -67 -173 -172 -460 -31
-85 -60 -164 -65 -175 -5 -11 -21 -54 -35 -95 -15 -41 -31 -84 -36 -95 -9 -20
-129 -344 -156 -420 -22 -63 -192 -522 -223 -605 -16 -41 -55 -146 -86 -234
-49 -134 -59 -155 -67 -135 -16 43 -87 244 -91 259 -3 8 -32 94 -66 190 -61
175 -206 593 -281 810 -22 63 -46 131 -54 150 -8 19 -30 82 -50 140 -20 58
-42 119 -48 135 -6 17 -12 32 -13 35 0 3 -4 12 -7 20 -8 19 -94 260 -114 320
-8 25 -19 54 -23 65 -5 11 -15 38 -22 60 l-13 40 -162 0 c-103 0 -163 -4 -164
-10z"/>
<path d="M11857 10375 c-1 -1 -38 -5 -82 -8 -71 -5 -106 -11 -204 -31 -49 -11
-157 -50 -196 -71 l-39 -23 -1 -202 c0 -111 3 -206 6 -211 3 -5 16 -1 30 9 70
55 248 121 378 140 25 4 100 7 166 6 153 0 220 -21 282 -89 56 -61 76 -124 77
-249 l1 -101 -185 -1 c-165 -1 -336 -10 -350 -19 -3 -2 -22 -6 -43 -9 -81 -13
-207 -64 -281 -115 -57 -39 -134 -122 -164 -179 -92 -174 -78 -419 34 -587
111 -167 296 -249 544 -240 207 7 339 68 441 203 l25 33 -1 -111 c-1 -104 0
-110 19 -111 64 -4 413 -4 424 -1 19 6 17 1306 -2 1417 -38 214 -139 365 -302
452 -67 36 -202 77 -284 88 -50 7 -287 14 -293 10z m417 -1265 c0 -152 -16
-208 -79 -278 -64 -71 -126 -95 -240 -96 -110 0 -159 13 -212 59 -48 41 -73
103 -73 180 0 124 107 231 250 252 19 3 36 6 38 8 1 1 73 2 160 1 l157 -1 -1
-125z"/>
<path d="M8348 10365 c-2 -1 -32 -5 -68 -8 -199 -19 -350 -112 -452 -279 l-38
-62 0 162 c0 89 -3 162 -7 162 -14 1 -376 1 -416 1 l-37 -1 2 -967 3 -967 223
-1 c123 0 226 3 228 6 2 3 4 260 4 571 1 618 3 642 61 763 97 205 329 294 524
200 102 -49 160 -143 173 -282 4 -43 7 -342 6 -665 0 -324 2 -588 5 -589 3 -1
104 -2 224 -3 186 -1 220 1 226 14 6 14 7 1178 1 1339 -8 204 -97 390 -232
488 -77 56 -176 96 -265 108 -63 8 -161 14 -165 10z"/>
<path d="M16598 10365 c-2 -2 -28 -6 -59 -9 -107 -12 -233 -50 -314 -94 l-50
-27 0 -122 c0 -68 3 -123 8 -123 5 0 21 9 37 20 50 36 174 87 263 109 145 37
350 32 462 -10 165 -62 240 -197 252 -458 l5 -116 -269 -1 c-299 -1 -376 -11
-518 -66 -177 -69 -292 -173 -348 -315 -52 -132 -41 -317 27 -466 55 -120 208
-240 356 -279 113 -30 305 -29 425 2 22 6 45 12 50 13 6 2 41 17 78 35 46 21
89 52 132 95 l64 64 -1 -51 c0 -28 1 -76 1 -107 l1 -56 115 0 115 0 1 26 c6
219 -2 1318 -11 1376 -24 156 -78 279 -164 372 -123 132 -294 192 -548 191
-59 -1 -109 -2 -110 -3z m594 -1045 c13 0 6 -333 -9 -389 -54 -208 -244 -336
-492 -330 -141 3 -230 31 -299 94 -143 129 -145 370 -3 497 87 79 191 115 351
125 52 3 96 6 97 7 1 1 336 -2 355 -4z"/>
<path d="M2580 10341 c-94 -21 -150 -41 -225 -82 -189 -104 -333 -276 -404
-484 -42 -125 -56 -221 -56 -395 1 -152 9 -216 41 -326 52 -181 146 -327 291
-454 101 -89 299 -175 448 -196 28 -3 59 -8 70 -10 29 -6 273 -5 320 1 103 12
134 17 190 31 69 17 183 61 205 80 12 10 15 45 14 206 -1 106 -2 195 -3 197
-1 2 -9 -3 -18 -11 -62 -52 -207 -109 -325 -128 -73 -12 -265 -9 -327 4 -172
38 -288 111 -371 235 -30 44 -70 140 -70 166 0 13 81 15 604 15 l604 0 6 28
c22 114 27 302 10 433 -46 358 -232 587 -554 679 -107 31 -331 36 -450 11z
m370 -373 c70 -32 123 -86 160 -163 32 -66 53 -169 48 -231 l-3 -39 -402 -2
c-222 -1 -403 2 -403 7 0 34 37 157 65 215 57 117 171 212 284 236 72 15 192
5 251 -23z"/>
<path d="M6140 10343 c-378 -77 -639 -381 -688 -803 -20 -169 3 -425 47 -535
5 -11 17 -40 27 -65 52 -129 166 -274 286 -366 113 -87 305 -160 473 -179 45
-5 296 -6 325 -1 14 3 50 7 80 11 56 6 88 13 175 38 46 14 144 54 155 64 2 2
5 94 6 203 l1 199 -41 -25 c-150 -92 -254 -119 -461 -119 -145 1 -168 3 -246
28 -178 56 -284 157 -358 340 -24 61 -67 57 593 57 l604 0 6 28 c28 135 28
347 0 512 -16 99 -103 300 -149 346 -6 7 -22 25 -36 40 -97 114 -280 209 -449
233 -92 13 -273 10 -350 -6z m368 -377 c123 -63 195 -194 201 -367 l2 -67
-406 0 -406 0 6 42 c10 60 44 154 77 212 50 90 166 184 243 198 15 3 30 7 33
10 3 3 48 4 101 3 81 -3 104 -7 149 -31z"/>
<path d="M18785 10345 c-101 -15 -143 -28 -228 -73 -76 -39 -164 -121 -200
-187 -80 -141 -74 -360 13 -494 70 -109 206 -199 460 -305 331 -139 416 -214
425 -379 8 -160 -83 -267 -260 -305 -59 -13 -225 -13 -298 0 -123 20 -176 38
-374 125 -10 4 -13 -23 -13 -115 l0 -119 58 -26 c137 -61 288 -86 502 -82 85
1 164 5 175 8 11 3 34 8 50 12 108 24 218 87 287 164 88 97 125 216 115 364
-18 254 -145 376 -592 567 -303 129 -364 191 -366 371 -2 124 103 229 257 258
48 10 286 7 302 -2 4 -3 28 -8 52 -11 49 -6 158 -39 202 -62 15 -8 28 -14 30
-14 2 0 4 52 4 115 l0 114 -47 21 c-43 18 -192 56 -229 59 -129 7 -261 6 -325
-4z"/>
<path d="M3597 10342 c-17 -3 -13 -20 23 -107 5 -11 32 -85 60 -165 83 -232
149 -418 187 -520 20 -52 57 -156 83 -230 27 -74 66 -184 88 -245 22 -60 70
-193 107 -295 36 -102 80 -223 97 -270 17 -47 37 -89 43 -95 9 -8 444 -13 486
-6 7 1 31 59 84 206 20 55 42 116 50 135 8 19 34 91 59 160 25 69 57 157 71
195 15 39 35 95 46 125 10 30 106 291 213 580 106 289 192 527 191 528 -4 5
-466 5 -470 0 -3 -3 -84 -248 -176 -533 -34 -104 -83 -255 -109 -335 -102
-314 -174 -559 -185 -633 -4 -26 -11 -47 -15 -47 -4 0 -13 26 -20 58 -10 48
-148 525 -210 727 -39 130 -101 330 -167 544 l-70 223 -225 2 c-123 0 -232 0
-241 -2z"/>
<path d="M17775 9371 l0 -966 117 -1 117 -2 -1 969 0 968 -117 -1 -117 -1 1
-966z"/>
</g>
</svg>
